<svg id="Capa_1" enable-background="new 0 0 512 512" height="512" viewBox="0 0 512 512" width="512" xmlns="http://www.w3.org/2000/svg"><g><path d="m466 512h-420c-8.284 0-15-6.716-15-15v-302c0-8.284 6.716-15 15-15h420c8.284 0 15 6.716 15 15v302c0 8.284-6.716 15-15 15z" fill="#f6f9f9"/><path d="m466 180h-210v332h210c8.284 0 15-6.716 15-15v-302c0-8.284-6.716-15-15-15z" fill="#dadfe7"/><path d="m496 210h-480c-4.978 0-9.631-2.469-12.421-6.591-2.791-4.121-3.354-9.358-1.506-13.98l40-100c2.278-5.695 7.793-9.429 13.927-9.429h400c6.134 0 11.649 3.734 13.927 9.429l40 100c1.849 4.622 1.285 9.859-1.506 13.98-2.79 4.122-7.443 6.591-12.421 6.591z" fill="#0fa7da"/><path d="m469.927 89.429c-2.278-5.695-7.793-9.429-13.927-9.429h-200v130h240c4.978 0 9.631-2.469 12.421-6.591 2.791-4.121 3.354-9.358 1.506-13.98z" fill="#1c69cf"/><path d="m1 195v34c0 28.167 22.833 51 51 51 28.167 0 51-22.833 51-51v-34z" fill="#ffe16e"/><path d="m409 195v34c0 28.167 22.833 51 51 51 28.167 0 51-22.833 51-51v-34z" fill="#ff8e00"/><path d="m307 195v34c0 28.167 22.833 51 51 51 28.167 0 51-22.833 51-51v-34z" fill="#0fa7da"/><path d="m205 195v34c0 28.167 22.833 51 51 51 28.167 0 51-22.833 51-51v-34z" fill="#ffe16e"/><path d="m103 195v34c0 28.167 22.833 51 51 51 28.167 0 51-22.833 51-51v-34z" fill="#7dd5f4"/><path d="m256 280c28.167 0 51-22.833 51-51v-34h-51z" fill="#ff8e00"/><path d="m401 150h-290c-8.284 0-15-6.716-15-15v-120c0-8.284 6.716-15 15-15h290c8.284 0 15 6.716 15 15v120c0 8.284-6.716 15-15 15z" fill="#ffe16e"/><path d="m401 0h-145v150h145c8.284 0 15-6.716 15-15v-120c0-8.284-6.716-15-15-15z" fill="#ff8e00"/><path d="m341 90h-170c-8.284 0-15-6.716-15-15s6.716-15 15-15h170c8.284 0 15 6.716 15 15s-6.716 15-15 15z" fill="#00429b"/><path d="m341 60h-85v30h85c8.284 0 15-6.716 15-15s-6.716-15-15-15z" fill="#00337a"/><path d="m226 512h-150v-185c0-8.284 6.716-15 15-15h120c8.284 0 15 6.716 15 15z" fill="#dadfe7"/><path d="m106 342h90v170h-90z" fill="#c8ffff"/><path d="m421 432h-120c-8.284 0-15-6.716-15-15v-90c0-8.284 6.716-15 15-15h120c8.284 0 15 6.716 15 15v90c0 8.284-6.716 15-15 15z" fill="#c6d0da"/><path d="m316 342h90v60h-90z" fill="#98f9ff"/><path d="m161 432c-8.284 0-15-6.716-15-15v-20c0-8.284 6.716-15 15-15s15 6.716 15 15v20c0 8.284-6.716 15-15 15z" fill="#dadfe7"/></g></svg>