<!DOCTYPE svg PUBLIC "-//W3C//DTD SVG 20010904//EN" "http://www.w3.org/TR/2001/REC-SVG-20010904/DTD/svg10.dtd">
<svg version="1.0" xmlns="http://www.w3.org/2000/svg" width="500px" height="500px" viewBox="0 0 5000 5000" preserveAspectRatio="xMidYMid meet">
<g id="layer101" fill="#010101" stroke="none">
<path d="M2134 3085 c-18 -7 -34 -18 -38 -23 -10 -17 11 -23 24 -7 7 9 29 15 51 15 30 0 42 -5 55 -26 16 -24 16 -27 -2 -51 -11 -15 -38 -32 -59 -40 -22 -7 -46 -21 -52 -30 -46 -62 40 -144 103 -99 24 18 13 31 -14 17 -42 -23 -82 -1 -82 45 0 20 10 29 54 48 83 37 106 83 64 129 -29 32 -65 39 -104 22z"/>
<path d="M2803 3080 c-60 -27 -85 -71 -80 -138 4 -56 27 -91 79 -118 34 -18 89 -18 113 0 16 12 11 13 -44 12 -60 -1 -64 0 -97 36 -40 44 -45 94 -14 145 27 44 54 56 116 51 62 -5 71 6 17 21 -47 13 -40 14 -90 -9z"/>
<path d="M3149 3091 c-126 -39 -147 -194 -37 -261 127 -77 274 86 184 204 -40 53 -93 73 -147 57z m117 -55 c28 -28 34 -42 34 -75 0 -57 -24 -100 -65 -117 -46 -19 -74 -18 -113 6 -70 43 -80 136 -20 192 25 23 39 28 80 28 44 0 54 -4 84 -34z"/>
<path d="M3401 3089 c-34 -14 -52 -30 -45 -40 3 -5 15 -2 27 6 31 21 80 19 102 -5 29 -32 10 -71 -42 -90 -83 -31 -105 -79 -58 -125 27 -27 51 -31 89 -14 37 17 22 29 -19 16 -31 -9 -38 -8 -57 10 -33 33 -18 66 38 88 26 10 55 26 65 36 55 55 -25 149 -100 118z"/>
<path d="M1880 2950 l0 -140 85 0 c50 0 85 4 85 10 0 6 -32 10 -75 10 l-75 0 0 55 0 55 65 0 c37 0 65 4 65 10 0 6 -28 10 -65 10 l-65 0 0 55 0 55 75 0 c43 0 75 4 75 10 0 6 -35 10 -85 10 l-85 0 0 -140z"/>
<path d="M2290 2949 l0 -142 52 5 c40 4 57 11 75 32 30 35 29 61 -2 91 -18 18 -35 25 -65 25 l-40 0 0 65 c0 37 -4 65 -10 65 -6 0 -10 -54 -10 -141z m107 -21 c33 -43 11 -85 -49 -95 l-38 -6 0 57 0 56 39 0 c21 0 43 -6 48 -12z"/>
<path d="M2454 3073 c24 -66 112 -263 117 -263 3 0 29 55 57 123 66 157 66 157 55 157 -5 0 -21 -27 -36 -60 l-26 -60 -51 0 -51 0 -26 60 c-14 33 -30 60 -35 60 -6 0 -7 -8 -4 -17z m151 -140 c-4 -10 -12 -30 -17 -45 -13 -37 -21 -35 -38 10 -8 20 -16 40 -18 45 -2 4 15 7 38 7 36 0 41 -2 35 -17z"/>
<path d="M2980 2950 c0 -87 4 -140 10 -140 6 0 10 53 10 140 0 87 -4 140 -10 140 -6 0 -10 -53 -10 -140z"/>
<path d="M1410 2805 c0 -12 13 -15 60 -15 l60 0 0 -285 0 -285 -60 0 c-47 0 -60 -3 -60 -15 0 -13 21 -15 130 -15 l130 0 0 300 0 300 60 0 c47 0 60 3 60 15 0 13 -28 15 -190 15 -162 0 -190 -2 -190 -15z"/>
<path d="M2019 2559 l-104 -122 -3 117 c-4 167 -22 148 -22 -25 0 -78 4 -138 9 -135 5 3 53 58 107 122 l99 116 3 -121 c4 -174 22 -154 22 24 0 80 -1 145 -3 145 -2 0 -50 -55 -108 -121z"/>
<path d="M2318 2560 l-103 -119 -3 114 c-2 93 -5 115 -17 115 -13 0 -15 -24 -15 -140 0 -77 4 -140 8 -140 5 0 55 55 113 122 l104 122 3 -122 c4 -175 22 -156 22 23 0 80 -2 145 -4 145 -3 0 -51 -54 -108 -120z"/>
<path d="M2579 2671 c-126 -39 -147 -194 -37 -261 127 -77 274 86 184 204 -40 53 -93 73 -147 57z m117 -55 c28 -28 34 -42 34 -75 0 -57 -24 -100 -65 -117 -46 -19 -74 -18 -113 6 -70 43 -80 136 -20 192 25 23 39 28 80 28 44 0 54 -4 84 -34z"/>
<path d="M2838 2542 c-61 -144 -63 -152 -50 -152 5 0 19 26 32 58 13 31 37 86 53 122 l29 65 50 -120 c54 -130 55 -131 65 -122 6 7 -108 287 -117 287 -3 0 -31 -62 -62 -138z"/>
<path d="M3050 2663 c0 -15 112 -273 118 -273 5 0 76 159 121 273 2 5 -2 8 -9 5 -7 -2 -22 -28 -35 -58 l-23 -55 -52 -3 -51 -3 -27 60 c-23 53 -42 77 -42 54z m151 -155 c-5 -13 -14 -36 -21 -53 l-12 -30 -13 31 c-30 73 -30 74 14 74 38 0 40 -1 32 -22z"/>
<path d="M1535 1955 c-37 -36 -34 -86 6 -119 40 -34 74 -33 110 3 56 57 23 141 -56 141 -25 0 -44 -8 -60 -25z"/>
</g>
<g id="layer102" fill="#00e2a2" stroke="none">
<path d="M1860 2193 c0 -4 233 -241 518 -526 l517 -517 518 518 c284 284 517 519 517 522 0 3 -466 7 -1035 9 -569 1 -1035 -1 -1035 -6z"/>
</g>


</svg>